<svg xmlns="http://www.w3.org/2000/svg" width="299.64" height="115.533" viewBox="0 0 299.64 115.533">
  <g id="Group_2436" data-name="Group 2436" transform="translate(-2482.129 -359.101)">
    <g id="Group_2447" data-name="Group 2447" transform="translate(2482.129 359.101)">
      <g id="Group_2446" data-name="Group 2446">
        <g id="Group_2440" data-name="Group 2440" transform="translate(0 25.436)">
          <g id="Group_2437" data-name="Group 2437" transform="translate(0 29.292)">
            <g id="Group_2436-2" data-name="Group 2436">
              <path id="Path_2538" data-name="Path 2538" d="M2492.631,549.578l-10.5-18.189L2528,504.9l10.227,18.348Z" transform="translate(-2482.129 -504.904)" fill="#fff"/>
            </g>
          </g>
          <g id="Group_2439" data-name="Group 2439" transform="translate(3.169)">
            <g id="Group_2438" data-name="Group 2438">
              <path id="Path_2539" data-name="Path 2539" d="M2527.2,437.652c-6.442-8.5-21.432-13.915-36.633-8.8l4.163,20.587c17.663-3.572,23.227,3.769,29.669,12.271,4.329,5.712,9.716,12.822,19.1,12.824V452.066C2535.65,449.313,2531.437,443.236,2527.2,437.652Z" transform="translate(-2490.572 -426.866)" fill="#ffa654"/>
            </g>
          </g>
        </g>
        <g id="Group_2445" data-name="Group 2445" transform="translate(56.099)">
          <g id="Group_2442" data-name="Group 2442">
            <g id="Group_2441" data-name="Group 2441">
              <path id="Path_2540" data-name="Path 2540" d="M2687.685,377.291l-10.5-18.19-45.6,26.326,10.333,18.287Z" transform="translate(-2631.586 -359.101)" fill="#fff"/>
            </g>
          </g>
          <g id="Group_2444" data-name="Group 2444" transform="translate(0 26.262)">
            <g id="Group_2443" data-name="Group 2443">
              <path id="Path_2541" data-name="Path 2541" d="M2671.683,447.648l-19.668-1.631-11.284-16.192-9.144-.758v24.372l8.846,12.694,19.668,1.631,8.458,12.138,17.232-12.008Z" transform="translate(-2631.586 -429.067)" fill="#ef5854"/>
            </g>
          </g>
        </g>
      </g>
    </g>
    <g id="Group_2450" data-name="Group 2450" transform="translate(2624.612 370.541)">
      <g id="Group_2448" data-name="Group 2448" transform="translate(0)">
        <path id="Path_2542" data-name="Path 2542" d="M2887.577,414.9a3.043,3.043,0,0,1-1.29.553,8.18,8.18,0,0,1-1.916.221,4.4,4.4,0,0,1-1.917-.332,2.256,2.256,0,0,1-1.032-1.142l-2.726-6.117a4.461,4.461,0,0,0-1.327-1.843,3.667,3.667,0,0,0-2.064-.479h-1.916v9.618h-5.675V389.58h8.771q4.937,0,7.59,2.1a8.02,8.02,0,0,1,1.492,10.115,7.13,7.13,0,0,1-3.372,2.6,8.759,8.759,0,0,1,1.658,2.506Zm-11.46-13.119a5.782,5.782,0,0,0,3.722-.958,3.875,3.875,0,0,0,1.143-3.132,3.936,3.936,0,0,0-1.143-3.151,5.7,5.7,0,0,0-3.722-.976h-2.727v8.217Z" transform="translate(-2865.468 -389.58)" fill="#fff"/>
        <path id="Path_2543" data-name="Path 2543" d="M2950.035,411.468a7.91,7.91,0,0,1-.4,3.077,1.526,1.526,0,0,1-1.511.829h-14.63V389.58h16.14v3.906h-10.465v6.633h8.7v3.906h-8.7v7.443Z" transform="translate(-2906.554 -389.58)" fill="#fff"/>
        <path id="Path_2544" data-name="Path 2544" d="M3007.87,391.128a10.46,10.46,0,0,1,4.348,4.44,14.746,14.746,0,0,1,1.511,6.909,14.207,14.207,0,0,1-1.566,6.8,10.988,10.988,0,0,1-4.4,4.514,13.386,13.386,0,0,1-6.633,1.584h-8.733V389.58h8.733A13.882,13.882,0,0,1,3007.87,391.128Zm-1.805,18a9.914,9.914,0,0,0,1.99-6.614q0-9.027-7.665-9.028h-2.321v17.982h2.321A7.039,7.039,0,0,0,3006.064,409.128Z" transform="translate(-2943.348 -389.58)" fill="#fff"/>
        <path id="Path_2545" data-name="Path 2545" d="M3079.816,411.468a7.892,7.892,0,0,1-.406,3.077,1.525,1.525,0,0,1-1.511.829h-14.629V389.58h16.14v3.906h-10.465v6.633h8.7v3.906h-8.7v7.443Z" transform="translate(-2987.622 -389.58)" fill="#fff"/>
        <path id="Path_2546" data-name="Path 2546" d="M2878.346,515.1h-10.022q-.516,2.432-1.069,6.375h-5.527a62.983,62.983,0,0,1,8.77-25.794h5.711a62.823,62.823,0,0,1,8.733,25.794h-5.527Q2878.862,517.535,2878.346,515.1Zm-.884-4.053a54.117,54.117,0,0,0-4.127-11.165,54.061,54.061,0,0,0-4.127,11.165Z" transform="translate(-2861.728 -455.857)" fill="#fff"/>
        <path id="Path_2547" data-name="Path 2547" d="M2956.31,519.119q.074,1.032.073,1.364,0,.995-.958.995h-4.791v-1.253a7.775,7.775,0,0,0-1.437-4.09l-8.143-12.528v17.871h-5.6V495.683h5.085a2.106,2.106,0,0,1,.792.129,1.437,1.437,0,0,1,.608.608l8.7,13.229V495.683h5.6v20.746Q2956.236,517.571,2956.31,519.119Z" transform="translate(-2907.781 -455.857)" fill="#fff"/>
        <path id="Path_2548" data-name="Path 2548" d="M3019.711,503.881h-10.023q-.516,2.432-1.069,6.375h-5.527a62.976,62.976,0,0,1,8.77-25.794h5.711a62.832,62.832,0,0,1,8.733,25.794h-5.528Q3020.227,506.314,3019.711,503.881Zm-.884-4.053a54.132,54.132,0,0,0-4.127-11.165,54.049,54.049,0,0,0-4.128,11.165Zm-3.869-22.109h6.08l-4.09,5.564H3012.3Z" transform="translate(-2950.031 -444.636)" fill="#fff"/>
        <path id="Path_2549" data-name="Path 2549" d="M3093.964,517.571v3.906h-15.182V495.683h5.674v21.888Z" transform="translate(-2997.311 -455.857)" fill="#fff"/>
        <path id="Path_2550" data-name="Path 2550" d="M3134.246,495.683h5.675v25.794h-5.675Z" transform="translate(-3031.956 -455.857)" fill="#fff"/>
        <path id="Path_2551" data-name="Path 2551" d="M3172.265,519.685a4.742,4.742,0,0,1-2.579-4.237,2.32,2.32,0,0,1,1.087-2.027,5.649,5.649,0,0,1,3.076-.774,4.72,4.72,0,0,0,1.677,3.353,6.051,6.051,0,0,0,3.924,1.179q4.532,0,4.532-3.353a2.547,2.547,0,0,0-1.234-2.174,16.047,16.047,0,0,0-4.293-1.732,15.392,15.392,0,0,1-6.375-3.114,6.388,6.388,0,0,1-2.026-4.883,6.238,6.238,0,0,1,2.6-5.288,11.633,11.633,0,0,1,7.094-1.935,10.932,10.932,0,0,1,6.191,1.713,8.653,8.653,0,0,1,3.538,4.772,5.542,5.542,0,0,1-1.732,1.105,5.016,5.016,0,0,1-1.953.479,1.689,1.689,0,0,1-1.032-.276,3.16,3.16,0,0,1-.773-1.05,5.255,5.255,0,0,0-1.7-2.063,4.587,4.587,0,0,0-2.543-.626q-3.943,0-3.943,2.616a3.1,3.1,0,0,0,.406,1.676,3.615,3.615,0,0,0,1.4,1.179,19.794,19.794,0,0,0,3.022,1.2,40.32,40.32,0,0,1,5.638,2.229,7.251,7.251,0,0,1,2.745,2.193,5.108,5.108,0,0,1,.792,2.911,7.658,7.658,0,0,1-1.308,4.422,8.628,8.628,0,0,1-3.666,2.985,13.107,13.107,0,0,1-5.454,1.068A13.821,13.821,0,0,1,3172.265,519.685Z" transform="translate(-3054.094 -455.244)" fill="#fff"/>
        <path id="Path_2552" data-name="Path 2552" d="M3252.887,517.571a7.9,7.9,0,0,1-.405,3.077,1.525,1.525,0,0,1-1.511.829h-14.629V495.683h16.14v3.906h-10.465v6.633h8.7v3.906h-8.7v7.444Z" transform="translate(-3095.73 -455.857)" fill="#fff"/>
      </g>
      <g id="Group_2449" data-name="Group 2449" transform="translate(0.995 80.808)">
        <path id="Path_2553" data-name="Path 2553" d="M2866.72,629.35q-2.34-2.718-2.34-7.747,0-5,2.354-7.733a8.315,8.315,0,0,1,6.658-2.733,8.916,8.916,0,0,1,3.27.6,7.183,7.183,0,0,1,2.573,1.671,2.749,2.749,0,0,1-.582,1.134,1.142,1.142,0,0,1-.843.465,1.235,1.235,0,0,1-.756-.262,6.266,6.266,0,0,0-1.759-.974,6,6,0,0,0-1.962-.306,5.209,5.209,0,0,0-4.477,2.05q-1.511,2.049-1.511,6.09a10.086,10.086,0,0,0,1.526,6.047,5.2,5.2,0,0,0,4.462,2.064,7.037,7.037,0,0,0,2.471-.422,6.847,6.847,0,0,0,2.151-1.323,1.476,1.476,0,0,1,.784.494,1.275,1.275,0,0,1,.321.843,1.751,1.751,0,0,1-.785,1.352,6.186,6.186,0,0,1-2.108,1.017,9.7,9.7,0,0,1-2.776.393A8.321,8.321,0,0,1,2866.72,629.35Z" transform="translate(-2864.38 -608.784)" fill="#fff"/>
        <path id="Path_2554" data-name="Path 2554" d="M2915.254,637.2q-1.774-2.121-1.773-6.192t1.773-6.163a7.533,7.533,0,0,1,10.422,0q1.787,2.093,1.787,6.163t-1.787,6.192a7.458,7.458,0,0,1-10.422,0Zm8.386-1.4a8.888,8.888,0,0,0,1-4.8,8.741,8.741,0,0,0-1-4.753,4.132,4.132,0,0,0-6.366,0,11.783,11.783,0,0,0,.015,9.549,4.092,4.092,0,0,0,6.351,0Z" transform="translate(-2895.051 -616.041)" fill="#fff"/>
        <path id="Path_2555" data-name="Path 2555" d="M2972.072,623.53a33.246,33.246,0,0,1-1.715,8.445,30.664,30.664,0,0,1-3.924,7.544h-2.616a29.974,29.974,0,0,1-4-7.544,32.812,32.812,0,0,1-1.73-8.445h2.82a31.921,31.921,0,0,0,1.279,7.108,25.306,25.306,0,0,0,2.936,6.206,25.592,25.592,0,0,0,2.893-6.192,31.3,31.3,0,0,0,1.235-7.122Z" transform="translate(-2922.915 -616.524)" fill="#fff"/>
        <path id="Path_2556" data-name="Path 2556" d="M3006.262,608.13v-.319a1.439,1.439,0,0,1,1.628-1.628h.29a1.439,1.439,0,0,1,1.628,1.628v.319a1.439,1.439,0,0,1-1.628,1.628h-.29A1.439,1.439,0,0,1,3006.262,608.13Zm.407,4.564h2.732v15.989h-2.732Z" transform="translate(-2953.007 -605.688)" fill="#fff"/>
        <path id="Path_2557" data-name="Path 2557" d="M3042.638,627.453a4.344,4.344,0,0,1-2.035.553q-.96,0-1.221-1.977a5.416,5.416,0,0,1-1.977,1.614,6.289,6.289,0,0,1-2.645.509,5.95,5.95,0,0,1-4.884-2.18,9.322,9.322,0,0,1-1.773-6.046,8.969,8.969,0,0,1,1.948-6.119,6.773,6.773,0,0,1,5.377-2.224,7.1,7.1,0,0,1,2.079.334,6.273,6.273,0,0,1,1.788.828v-7.878h2.761v18.518A10.485,10.485,0,0,0,3042.638,627.453Zm-5.174-1.9a5.638,5.638,0,0,0,1.831-1.846v-8.721a4.524,4.524,0,0,0-1.642-1.047,5.63,5.63,0,0,0-2.078-.407,4.048,4.048,0,0,0-3.474,1.642,7.949,7.949,0,0,0-1.207,4.753,8.249,8.249,0,0,0,1.076,4.651,3.565,3.565,0,0,0,3.139,1.57A4.578,4.578,0,0,0,3037.464,625.549Z" transform="translate(-2966.649 -604.866)" fill="#fff"/>
        <path id="Path_2558" data-name="Path 2558" d="M3079.294,639.8h10.465v1.918h-10.465Z" transform="translate(-2998.626 -626.684)" fill="#fff"/>
        <path id="Path_2559" data-name="Path 2559" d="M3127.95,630.286v1.977h-9.594v-1.977h3.546V615.169a8.51,8.51,0,0,1-1.569.945,3.69,3.69,0,0,1-1.541.392,1.44,1.44,0,0,1-1.018-.349,1.24,1.24,0,0,1-.377-.959,1.618,1.618,0,0,1,.145-.727,8.657,8.657,0,0,0,2.7-.784,9.045,9.045,0,0,0,2.616-1.773h1.686v18.372Z" transform="translate(-3022.427 -609.269)" fill="#fff"/>
        <path id="Path_2560" data-name="Path 2560" d="M3169.047,614a9.551,9.551,0,0,1,1.715,5.96,14.847,14.847,0,0,1-1.293,6.235,11.4,11.4,0,0,1-3.532,4.506,8.071,8.071,0,0,1-4.942,1.671,1.783,1.783,0,0,1-1.424-.509,2.24,2.24,0,0,1-.437-1.5,8.334,8.334,0,0,0,5.495-1.8,9.336,9.336,0,0,0,3.024-4.913,7.994,7.994,0,0,1-1.933.959,6.829,6.829,0,0,1-2.253.378,6.64,6.64,0,0,1-4.754-1.715,6.317,6.317,0,0,1-1.816-4.826,6.7,6.7,0,0,1,.9-3.474,6.3,6.3,0,0,1,2.442-2.369,7.086,7.086,0,0,1,3.459-.843A6.312,6.312,0,0,1,3169.047,614Zm-.989,7.093q.03-.377.029-1.134a8.526,8.526,0,0,0-.988-4.477,3.74,3.74,0,0,0-3.46-1.6,3.672,3.672,0,0,0-3.009,1.294,5.17,5.17,0,0,0-1.061,3.387,4.387,4.387,0,0,0,1.09,3.255,4.22,4.22,0,0,0,3.1,1.076A5.871,5.871,0,0,0,3168.059,621.09Z" transform="translate(-3047.1 -609.171)" fill="#fff"/>
      </g>
    </g>
  </g>
</svg>
