<svg id="Group_2343" data-name="Group 2343" xmlns="http://www.w3.org/2000/svg" width="195.36" height="64.808" viewBox="0 0 195.36 64.808">
  <g id="Group_2342" data-name="Group 2342" transform="translate(0)">
    <g id="Group_2339" data-name="Group 2339">
      <g id="Group_2338" data-name="Group 2338">
        <g id="Group_2332" data-name="Group 2332" transform="translate(0 16.584)">
          <g id="Group_2329" data-name="Group 2329" transform="translate(0 19.097)">
            <g id="Group_2328" data-name="Group 2328">
              <path id="Path_2435" data-name="Path 2435" d="M2192.439,499.733l-6.847-11.859,29.907-17.267,6.668,11.963Z" transform="translate(-2185.592 -470.606)" fill="#fff"/>
            </g>
          </g>
          <g id="Group_2331" data-name="Group 2331" transform="translate(2.066)">
            <g id="Group_2330" data-name="Group 2330">
              <path id="Path_2436" data-name="Path 2436" d="M2217,408.128c-4.2-5.543-13.974-9.072-23.884-5.734l2.714,13.422c11.516-2.329,15.144,2.458,19.344,8,2.822,3.724,6.334,8.36,12.451,8.361V417.526C2222.5,415.731,2219.756,411.769,2217,408.128Z" transform="translate(-2193.113 -401.096)" fill="#ffa654"/>
            </g>
          </g>
        </g>
        <g id="Group_2337" data-name="Group 2337" transform="translate(36.575)">
          <g id="Group_2334" data-name="Group 2334">
            <g id="Group_2333" data-name="Group 2333">
              <path id="Path_2437" data-name="Path 2437" d="M2355.292,352.6l-6.847-11.859L2318.717,357.9l6.737,11.923Z" transform="translate(-2318.717 -340.736)" fill="#fff"/>
            </g>
          </g>
          <g id="Group_2336" data-name="Group 2336" transform="translate(0 17.122)">
            <g id="Group_2335" data-name="Group 2335">
              <path id="Path_2438" data-name="Path 2438" d="M2344.859,415.171l-12.823-1.063-7.357-10.557-5.962-.494v15.89l5.768,8.276,12.823,1.063,5.515,7.914,11.235-7.829Z" transform="translate(-2318.717 -403.056)" fill="#ef5854"/>
            </g>
          </g>
        </g>
      </g>
    </g>
    <g id="Group_2341" data-name="Group 2341" transform="translate(92.896 7.459)">
      <g id="Group_2340" data-name="Group 2340">
        <path id="Path_2439" data-name="Path 2439" d="M2541.992,384.389a1.979,1.979,0,0,1-.841.36,5.332,5.332,0,0,1-1.249.145,2.865,2.865,0,0,1-1.249-.216,1.469,1.469,0,0,1-.673-.745l-1.778-3.988a2.9,2.9,0,0,0-.865-1.2,2.392,2.392,0,0,0-1.346-.312h-1.249V384.7h-3.7V367.884h5.718a7.816,7.816,0,0,1,4.949,1.369,5.228,5.228,0,0,1,.973,6.6,4.649,4.649,0,0,1-2.2,1.694,5.7,5.7,0,0,1,1.081,1.634Zm-7.472-8.553a3.769,3.769,0,0,0,2.427-.624,2.527,2.527,0,0,0,.745-2.042,2.566,2.566,0,0,0-.745-2.054,3.719,3.719,0,0,0-2.427-.637h-1.778v5.358Z" transform="translate(-2527.578 -367.884)" fill="#fff"/>
        <path id="Path_2440" data-name="Path 2440" d="M2598.417,382.155a5.147,5.147,0,0,1-.264,2.006.994.994,0,0,1-.985.54h-9.538V367.884h10.523v2.547h-6.823v4.325H2597V377.3h-5.67v4.853Z" transform="translate(-2570.068 -367.884)" fill="#fff"/>
        <path id="Path_2441" data-name="Path 2441" d="M2650.187,368.893a6.824,6.824,0,0,1,2.835,2.895,9.619,9.619,0,0,1,.985,4.5,9.261,9.261,0,0,1-1.021,4.432,7.16,7.16,0,0,1-2.871,2.943,8.724,8.724,0,0,1-4.324,1.033H2640.1V367.884h5.694A9.05,9.05,0,0,1,2650.187,368.893Zm-1.177,11.736a6.464,6.464,0,0,0,1.3-4.312q0-5.885-5-5.886H2643.8v11.724h1.514A4.588,4.588,0,0,0,2649.009,380.629Z" transform="translate(-2608.119 -367.884)" fill="#fff"/>
        <path id="Path_2442" data-name="Path 2442" d="M2714.016,382.155a5.147,5.147,0,0,1-.264,2.006.994.994,0,0,1-.985.54h-9.538V367.884h10.523v2.547h-6.823v4.325h5.67V377.3h-5.67v4.853Z" transform="translate(-2653.907 -367.884)" fill="#fff"/>
        <path id="Path_2443" data-name="Path 2443" d="M2534.545,475.054h-6.534q-.337,1.585-.7,4.156h-3.6a41.064,41.064,0,0,1,5.718-16.817h3.724a40.957,40.957,0,0,1,5.694,16.817h-3.6Q2534.881,476.64,2534.545,475.054Zm-.576-2.643a35.3,35.3,0,0,0-2.691-7.279,35.266,35.266,0,0,0-2.691,7.279Z" transform="translate(-2523.71 -436.427)" fill="#fff"/>
        <path id="Path_2444" data-name="Path 2444" d="M2602.976,477.673q.048.673.048.889,0,.649-.624.649h-3.123v-.817a5.07,5.07,0,0,0-.937-2.667l-5.309-8.168V479.21h-3.652V462.393h3.316a1.374,1.374,0,0,1,.517.084.938.938,0,0,1,.4.4l5.67,8.625v-9.105h3.652v13.526Q2602.928,476.664,2602.976,477.673Z" transform="translate(-2571.336 -436.427)" fill="#fff"/>
        <path id="Path_2445" data-name="Path 2445" d="M2660.462,463.449h-6.534q-.337,1.585-.7,4.156h-3.6a41.063,41.063,0,0,1,5.718-16.817h3.724a40.958,40.958,0,0,1,5.694,16.817h-3.6Q2660.8,465.035,2660.462,463.449Zm-.576-2.643a35.266,35.266,0,0,0-2.691-7.279,35.252,35.252,0,0,0-2.691,7.279Zm-2.523-14.415h3.964l-2.667,3.627h-3.027Z" transform="translate(-2615.032 -424.822)" fill="#fff"/>
        <path id="Path_2446" data-name="Path 2446" d="M2726.943,476.664v2.547h-9.9V462.393h3.7v14.271Z" transform="translate(-2663.927 -436.427)" fill="#fff"/>
        <path id="Path_2447" data-name="Path 2447" d="M2766.449,462.393h3.7V479.21h-3.7Z" transform="translate(-2699.758 -436.427)" fill="#fff"/>
        <path id="Path_2448" data-name="Path 2448" d="M2799.7,477.808a3.091,3.091,0,0,1-1.682-2.763,1.513,1.513,0,0,1,.708-1.321,3.682,3.682,0,0,1,2.006-.5,3.078,3.078,0,0,0,1.093,2.186,3.946,3.946,0,0,0,2.559.769q2.955,0,2.955-2.186a1.66,1.66,0,0,0-.8-1.418,10.467,10.467,0,0,0-2.8-1.129,10.029,10.029,0,0,1-4.156-2.03,4.164,4.164,0,0,1-1.321-3.183,4.066,4.066,0,0,1,1.694-3.448,7.582,7.582,0,0,1,4.625-1.261,7.128,7.128,0,0,1,4.036,1.117,5.642,5.642,0,0,1,2.307,3.111,3.612,3.612,0,0,1-1.129.721,3.271,3.271,0,0,1-1.273.312,1.1,1.1,0,0,1-.673-.18,2.064,2.064,0,0,1-.5-.685,3.425,3.425,0,0,0-1.105-1.345,2.988,2.988,0,0,0-1.657-.409q-2.572,0-2.571,1.706a2.03,2.03,0,0,0,.264,1.093,2.361,2.361,0,0,0,.913.769,12.9,12.9,0,0,0,1.97.781,26.273,26.273,0,0,1,3.675,1.453,4.727,4.727,0,0,1,1.79,1.43,3.328,3.328,0,0,1,.517,1.9,4.988,4.988,0,0,1-.853,2.883,5.622,5.622,0,0,1-2.39,1.946,8.545,8.545,0,0,1-3.556.7A9.011,9.011,0,0,1,2799.7,477.808Z" transform="translate(-2722.652 -435.793)" fill="#fff"/>
        <path id="Path_2449" data-name="Path 2449" d="M2868.175,476.664a5.156,5.156,0,0,1-.264,2.006,1,1,0,0,1-.985.54h-9.538V462.393h10.523v2.547h-6.823v4.325h5.669v2.546h-5.669v4.853Z" transform="translate(-2765.712 -436.427)" fill="#fff"/>
      </g>
    </g>
  </g>
</svg>
