<svg xmlns="http://www.w3.org/2000/svg" width="100.129" height="33.216" viewBox="0 0 100.129 33.216">
  <g id="Group_2324" data-name="Group 2324" transform="translate(0 0)">
    <g id="Group_2321" data-name="Group 2321">
      <g id="Group_2320" data-name="Group 2320">
        <g id="Group_2314" data-name="Group 2314" transform="translate(0 8.5)">
          <g id="Group_2311" data-name="Group 2311" transform="translate(0 9.788)">
            <g id="Group_2310" data-name="Group 2310">
              <path id="Path_2412" data-name="Path 2412" d="M373.21,566.884l-3.509-6.078,15.329-8.85,3.418,6.131Z" transform="translate(-369.701 -551.955)" fill="#3333e2"/>
            </g>
          </g>
          <g id="Group_2313" data-name="Group 2313" transform="translate(1.059)">
            <g id="Group_2312" data-name="Group 2312">
              <path id="Path_2413" data-name="Path 2413" d="M389.463,486.05c-2.153-2.841-7.162-4.65-12.241-2.939l1.391,6.879c5.9-1.194,7.762,1.26,9.914,4.1,1.446,1.909,3.247,4.285,6.382,4.286v-7.51C392.285,489.947,390.877,487.916,389.463,486.05Z" transform="translate(-377.222 -482.446)" fill="#ffa654"/>
            </g>
          </g>
        </g>
        <g id="Group_2319" data-name="Group 2319" transform="translate(18.746)">
          <g id="Group_2316" data-name="Group 2316">
            <g id="Group_2315" data-name="Group 2315">
              <path id="Path_2414" data-name="Path 2414" d="M521.572,428.163l-3.509-6.078-15.237,8.8,3.453,6.111Z" transform="translate(-502.826 -422.085)" fill="#3333e2"/>
            </g>
          </g>
          <g id="Group_2318" data-name="Group 2318" transform="translate(0 8.776)">
            <g id="Group_2317" data-name="Group 2317">
              <path id="Path_2415" data-name="Path 2415" d="M516.225,490.615l-6.572-.545-3.771-5.411-3.056-.253v8.144l2.956,4.242,6.572.545,2.827,4.056,5.758-4.013Z" transform="translate(-502.826 -484.405)" fill="#ef5854"/>
            </g>
          </g>
        </g>
      </g>
    </g>
    <g id="Group_2323" data-name="Group 2323" transform="translate(47.613 3.823)">
      <g id="Group_2322" data-name="Group 2322">
        <path id="Path_2416" data-name="Path 2416" d="M719.789,457.692a1.014,1.014,0,0,1-.431.185,2.734,2.734,0,0,1-.64.074,1.467,1.467,0,0,1-.64-.111.753.753,0,0,1-.345-.382l-.911-2.044a1.49,1.49,0,0,0-.443-.616,1.225,1.225,0,0,0-.69-.16h-.64v3.214h-1.9v-8.619h2.931a4.005,4.005,0,0,1,2.537.7,2.68,2.68,0,0,1,.5,3.38,2.384,2.384,0,0,1-1.127.868,2.919,2.919,0,0,1,.554.837Zm-3.829-4.384a1.931,1.931,0,0,0,1.244-.32,1.3,1.3,0,0,0,.382-1.047,1.315,1.315,0,0,0-.382-1.053,1.906,1.906,0,0,0-1.244-.326h-.911v2.746Z" transform="translate(-712.401 -449.233)" fill="#3333e2"/>
        <path id="Path_2417" data-name="Path 2417" d="M777.268,456.547a2.639,2.639,0,0,1-.135,1.028.51.51,0,0,1-.5.277h-4.889v-8.619h5.393v1.305h-3.5v2.216h2.906v1.305h-2.906v2.487Z" transform="translate(-762.738 -449.233)" fill="#3333e2"/>
        <path id="Path_2418" data-name="Path 2418" d="M829.377,449.75a3.5,3.5,0,0,1,1.453,1.484,4.931,4.931,0,0,1,.5,2.309,4.747,4.747,0,0,1-.523,2.272,3.672,3.672,0,0,1-1.471,1.508,4.472,4.472,0,0,1-2.216.529h-2.918v-8.619h2.918A4.64,4.64,0,0,1,829.377,449.75Zm-.6,6.015a3.313,3.313,0,0,0,.665-2.21q0-3.016-2.561-3.017H826.1v6.009h.776A2.352,2.352,0,0,0,828.773,455.765Z" transform="translate(-807.816 -449.233)" fill="#3333e2"/>
        <path id="Path_2419" data-name="Path 2419" d="M892.867,456.547a2.638,2.638,0,0,1-.135,1.028.51.51,0,0,1-.5.277h-4.888v-8.619h5.393v1.305h-3.5v2.216h2.906v1.305h-2.906v2.487Z" transform="translate(-862.059 -449.233)" fill="#3333e2"/>
        <path id="Path_2420" data-name="Path 2420" d="M713.372,550.231h-3.349q-.173.813-.357,2.13h-1.847a21.046,21.046,0,0,1,2.931-8.619h1.908a20.991,20.991,0,0,1,2.918,8.619h-1.847Q713.544,551.044,713.372,550.231Zm-.3-1.354a18.08,18.08,0,0,0-1.379-3.731,18.08,18.08,0,0,0-1.379,3.731Z" transform="translate(-707.819 -530.434)" fill="#3333e2"/>
        <path id="Path_2421" data-name="Path 2421" d="M780.457,551.573q.025.345.024.456,0,.333-.32.332h-1.6v-.419a2.6,2.6,0,0,0-.48-1.367l-2.721-4.187v5.972h-1.872v-8.619h1.7a.7.7,0,0,1,.265.043.48.48,0,0,1,.2.2l2.906,4.421v-4.667h1.872v6.933Q780.432,551.056,780.457,551.573Z" transform="translate(-764.24 -530.434)" fill="#3333e2"/>
        <path id="Path_2422" data-name="Path 2422" d="M839.289,536.483H835.94q-.173.813-.357,2.13h-1.847a21.045,21.045,0,0,1,2.931-8.619h1.909a20.992,20.992,0,0,1,2.918,8.619h-1.847Q839.462,537.3,839.289,536.483Zm-.3-1.354a18.075,18.075,0,0,0-1.379-3.731,18.068,18.068,0,0,0-1.379,3.731Zm-1.293-7.388h2.032l-1.367,1.859h-1.552Z" transform="translate(-816.005 -516.686)" fill="#3333e2"/>
        <path id="Path_2423" data-name="Path 2423" d="M906.227,551.056v1.305h-5.073v-8.619h1.9v7.314Z" transform="translate(-873.929 -530.434)" fill="#3333e2"/>
        <path id="Path_2424" data-name="Path 2424" d="M950.557,543.742h1.9v8.619h-1.9Z" transform="translate(-916.376 -530.434)" fill="#3333e2"/>
        <path id="Path_2425" data-name="Path 2425" d="M982.986,551.216a1.584,1.584,0,0,1-.862-1.416.776.776,0,0,1,.363-.677,1.885,1.885,0,0,1,1.028-.259,1.577,1.577,0,0,0,.56,1.12,2.022,2.022,0,0,0,1.311.394q1.515,0,1.515-1.12a.851.851,0,0,0-.412-.727,5.366,5.366,0,0,0-1.435-.579,5.144,5.144,0,0,1-2.13-1.04,2.135,2.135,0,0,1-.677-1.632,2.085,2.085,0,0,1,.868-1.767,3.887,3.887,0,0,1,2.37-.646,3.653,3.653,0,0,1,2.069.573,2.892,2.892,0,0,1,1.182,1.595,1.848,1.848,0,0,1-.579.369,1.675,1.675,0,0,1-.653.16.565.565,0,0,1-.345-.092,1.057,1.057,0,0,1-.259-.351,1.757,1.757,0,0,0-.566-.689,1.532,1.532,0,0,0-.85-.209q-1.318,0-1.318.874a1.039,1.039,0,0,0,.135.56,1.211,1.211,0,0,0,.468.394,6.633,6.633,0,0,0,1.01.4,13.477,13.477,0,0,1,1.884.745,2.424,2.424,0,0,1,.917.733,1.706,1.706,0,0,1,.265.973,2.557,2.557,0,0,1-.437,1.478,2.881,2.881,0,0,1-1.225,1,4.377,4.377,0,0,1-1.822.357A4.619,4.619,0,0,1,982.986,551.216Z" transform="translate(-943.497 -529.683)" fill="#3333e2"/>
        <path id="Path_2426" data-name="Path 2426" d="M1047.026,551.056a2.638,2.638,0,0,1-.135,1.028.51.51,0,0,1-.5.277H1041.5v-8.619h5.393v1.305h-3.5v2.216h2.906v1.305h-2.906v2.487Z" transform="translate(-994.51 -530.434)" fill="#3333e2"/>
      </g>
    </g>
  </g>
</svg>
